<svg width="24" height="24" viewBox="0 0 24 24" fill="none" xmlns="http://www.w3.org/2000/svg">
<path d="M6.5 0C4.01562 0 2 2.01562 2 4.5V19.5C2 21.9844 4.01562 24 6.5 24H20H21.5C22.3297 24 23 23.3297 23 22.5C23 21.6703 22.3297 21 21.5 21V18C22.3297 18 23 17.3297 23 16.5V1.5C23 0.670312 22.3297 0 21.5 0H20H6.5ZM6.5 18H18.5V21H6.5C5.67031 21 5 20.3297 5 19.5C5 18.6703 5.67031 18 6.5 18ZM11.75 3.75C11.75 3.3375 12.0875 3 12.5 3H14C14.4125 3 14.75 3.3375 14.75 3.75V6H17C17.4125 6 17.75 6.3375 17.75 6.75V8.25C17.75 8.6625 17.4125 9 17 9H14.75V14.25C14.75 14.6625 14.4125 15 14 15H12.5C12.0875 15 11.75 14.6625 11.75 14.25V9H9.5C9.0875 9 8.75 8.6625 8.75 8.25V6.75C8.75 6.3375 9.0875 6 9.5 6H11.75V3.75Z" fill="black"/>
</svg>
