<svg width="220" height="25" viewBox="0 0 220 25" fill="none" xmlns="http://www.w3.org/2000/svg">
<path d="M7.42447 18.624V7.152H11.5285V18.624C11.5285 22.248 9.32047 24.168 5.98447 24.168C2.52847 24.168 0.104469 22.152 0.104469 18.36H4.18447C4.18447 19.8 4.80847 20.496 5.86447 20.496C6.84847 20.496 7.42447 19.872 7.42447 18.624ZM25.1635 7.152V10.44H18.9475V13.848H24.4435V17.016H18.9475V20.712H25.1635V24H14.8435V7.152H25.1635ZM40.0678 18.984C40.0678 21.816 37.8598 24.168 33.9238 24.168C30.2998 24.168 27.4678 22.368 27.3478 18.96H31.7158C31.8358 20.256 32.6518 20.88 33.8038 20.88C35.0038 20.88 35.7718 20.28 35.7718 19.296C35.7718 16.176 27.3478 17.856 27.3958 11.88C27.3958 8.688 30.0118 6.912 33.5398 6.912C37.2118 6.912 39.6838 8.736 39.8518 11.952H35.4118C35.3398 10.872 34.5718 10.224 33.4678 10.2C32.4838 10.176 31.7398 10.68 31.7398 11.736C31.7398 14.664 40.0678 13.344 40.0678 18.984ZM42.5215 17.208V7.152H46.6255V17.232C46.6255 19.224 47.6095 20.376 49.5535 20.376C51.4975 20.376 52.5295 19.224 52.5295 17.232V7.152H56.6335V17.208C56.6335 21.864 53.3695 24.168 49.4815 24.168C45.5695 24.168 42.5215 21.864 42.5215 17.208ZM46.5775 3.36L52.3615 0.575998V3.768L46.5775 6.192V3.36ZM71.7553 18.984C71.7553 21.816 69.5473 24.168 65.6113 24.168C61.9873 24.168 59.1553 22.368 59.0353 18.96H63.4033C63.5233 20.256 64.3393 20.88 65.4913 20.88C66.6913 20.88 67.4593 20.28 67.4593 19.296C67.4593 16.176 59.0353 17.856 59.0833 11.88C59.0833 8.688 61.6993 6.912 65.2273 6.912C68.8993 6.912 71.3713 8.736 71.5393 11.952H67.0993C67.0273 10.872 66.2593 10.224 65.1553 10.2C64.1713 10.176 63.4273 10.68 63.4273 11.736C63.4273 14.664 71.7553 13.344 71.7553 18.984ZM89.6869 7.152V10.44H83.4709V13.848H88.9669V17.016H83.4709V20.712H89.6869V24H79.3669V7.152H89.6869ZM92.3513 7.152H96.4553V20.832H101.831V24H92.3513V7.152ZM120.371 24L119.363 21.024H113.075L112.067 24H107.771L113.867 7.152H118.619L124.715 24H120.371ZM118.307 17.856L116.219 11.688L114.155 17.856H118.307ZM126.57 7.152H130.674V20.832H136.05V24H126.57V7.152ZM137.096 10.44V7.152H150.128V10.44H145.664V24H141.56V10.44H137.096ZM152.187 24V7.152H156.291V24H152.187ZM151.251 3.36L157.035 0.575998V3.768L151.251 6.192V3.36ZM171.505 18.984C171.505 21.816 169.297 24.168 165.361 24.168C161.737 24.168 158.905 22.368 158.785 18.96H163.153C163.273 20.256 164.089 20.88 165.241 20.88C166.441 20.88 167.209 20.28 167.209 19.296C167.209 16.176 158.785 17.856 158.833 11.88C158.833 8.688 161.449 6.912 164.977 6.912C168.649 6.912 171.121 8.736 171.289 11.952H166.849C166.777 10.872 166.009 10.224 164.905 10.2C163.921 10.176 163.177 10.68 163.177 11.736C163.177 14.664 171.505 13.344 171.505 18.984ZM174.031 24V7.152H178.135V24H174.031ZM181.109 24V7.152H185.957L190.685 18.816L195.365 7.152H200.189V24H196.085V13.896L192.317 24H189.005L185.213 13.872V24H181.109ZM219.724 15.528C219.724 20.592 215.884 24.168 211.108 24.168C206.332 24.168 202.444 20.592 202.444 15.528C202.444 10.464 206.332 6.912 211.108 6.912C215.908 6.912 219.724 10.464 219.724 15.528ZM206.644 15.528C206.644 18.48 208.372 20.424 211.108 20.424C213.796 20.424 215.548 18.48 215.548 15.528C215.548 12.528 213.796 10.632 211.108 10.632C208.372 10.632 206.644 12.528 206.644 15.528Z" fill="#FBE3BD"/>
</svg>
